<?xml version="1.0" encoding="utf-8"?>
<!-- Generator: Adobe Illustrator 16.0.0, SVG Export Plug-In . SVG Version: 6.00 Build 0)  -->
<!DOCTYPE svg PUBLIC "-//W3C//DTD SVG 1.1//EN" "http://www.w3.org/Graphics/SVG/1.1/DTD/svg11.dtd">
<svg version="1.1" id="Icons" xmlns="http://www.w3.org/2000/svg" xmlns:xlink="http://www.w3.org/1999/xlink" x="0px" y="0px"
	 width="1000px" height="1000px" viewBox="0 0 1000 1000" enable-background="new 0 0 1000 1000" xml:space="preserve">
<path fill="#2D2D2D" d="M925,64.253c-12.5-12.5-31.25-12.5-43.75,0s-12.5,31.25,0,43.75c34.375,34.375,34.375,87.5,0,121.875
	c-31.25,31.25-87.5,31.25-121.875,0l-40.625-40.625l0,0c-71.875-90.625-184.375-150-312.5-150C181.25,39.253,0,220.503,0,445.503
	s181.25,406.25,406.25,406.25c25,0,46.875-3.125,68.75-6.25c-25-43.75-37.5-96.875-37.5-150c0-171.875,140.625-312.5,312.5-312.5
	c18.75,0,40.625,3.125,59.375,6.25c-3.125-25-9.375-50-18.75-75c9.375,3.125,21.875,3.125,31.25,3.125
	c40.625,0,78.125-15.625,103.125-43.75C984.375,214.253,984.375,120.503,925,64.253z M184.375,223.628
	c34.375-37.5,96.875-37.5,131.25,0l0,0l0,0c18.75,15.625,28.125,40.625,28.125,65.625s-9.375,50-28.125,65.625
	C300,373.628,275,383.003,250,383.003s-50-9.375-65.625-28.125c-18.75-15.625-28.125-40.625-28.125-65.625
	S165.625,239.253,184.375,223.628z M315.625,667.378C300,686.128,275,695.503,250,695.503s-50-9.375-65.625-28.125
	c-18.75-15.625-28.125-40.625-28.125-65.625s9.375-50,28.125-65.625l0,0l0,0c34.375-34.375,96.875-34.375,131.25,0
	c18.75,18.75,28.125,40.625,28.125,65.625S334.375,651.753,315.625,667.378z M471.875,511.128
	c-15.625,18.75-40.625,28.125-65.625,28.125s-50-9.375-65.625-28.125c-18.75-15.625-28.125-40.625-28.125-65.625
	s9.375-50,28.125-65.625c34.375-34.375,96.875-34.375,131.25,0l0,0l0,0c18.75,18.75,28.125,40.625,28.125,65.625
	S490.625,495.503,471.875,511.128z M628.125,354.878L628.125,354.878L628.125,354.878c-15.625,18.75-40.625,28.125-65.625,28.125
	s-50-9.375-65.625-28.125c-18.75-15.625-28.125-40.625-28.125-65.625s9.375-50,28.125-65.625c34.375-34.375,96.875-34.375,131.25,0
	c18.75,15.625,28.125,40.625,28.125,65.625S646.875,339.253,628.125,354.878z"/>
<g>
	<g>
	</g>
	<g>
	</g>
	<g>
	</g>
	<g>
	</g>
	<g>
	</g>
	<g>
	</g>
	<g>
	</g>
	<g>
	</g>
	<g>
	</g>
	<g>
	</g>
	<g>
	</g>
	<g>
	</g>
	<g>
	</g>
	<g>
	</g>
	<g>
	</g>
</g>
<path fill="#2D2D2D" d="M750,445.503c-137.5,0-250,112.5-250,250s112.5,250,250,250s250-112.5,250-250S887.5,445.503,750,445.503z
	 M680.344,630.093l-14.113-7.714l-14.11,7.714l2.697-16.331l-11.421-11.575l15.778-2.378l7.056-14.86l7.058,14.86l15.78,2.378
	l-11.416,11.575L680.344,630.093z M659.175,690.911l7.056-14.858l7.058,14.858l15.78,2.385l-11.416,11.566l2.691,16.334
	l-14.113-7.714l-14.11,7.714l2.697-16.334l-11.421-11.566L659.175,690.911z M659.175,784.188l7.056-14.858l7.058,14.858l15.78,2.386
	l-11.416,11.565l2.691,16.333l-14.113-7.712l-14.11,7.712l2.697-16.333l-11.421-11.565L659.175,784.188z M715.635,699.711h137
	c3.209,0,5.813,2.7,5.813,6.041s-2.604,6.04-5.813,6.04h-137c-3.207,0-5.813-2.699-5.813-6.04S712.428,699.711,715.635,699.711z
	 M709.822,615.15c0-3.341,2.605-6.04,5.813-6.04h137c3.209,0,5.813,2.699,5.813,6.04c0,3.34-2.604,6.039-5.813,6.039h-137
	C712.428,621.189,709.822,618.49,709.822,615.15z M715.635,790.313h137c3.209,0,5.813,2.7,5.813,6.04c0,3.341-2.604,6.04-5.813,6.04
	h-137c-3.207,0-5.813-2.699-5.813-6.04C709.822,793.013,712.428,790.313,715.635,790.313z"/>
</svg>
